<?xml version="1.0" standalone="no"?>
<!DOCTYPE svg PUBLIC "-//W3C//DTD SVG 20010904//EN"
 "http://www.w3.org/TR/2001/REC-SVG-20010904/DTD/svg10.dtd">
<svg version="1.0" xmlns="http://www.w3.org/2000/svg"
 width="700.000000pt" height="700.000000pt" viewBox="0 0 700.000000 700.000000"
 preserveAspectRatio="xMidYMid meet">
<metadata>
Created by potrace 1.14, written by Peter Selinger 2001-2017
</metadata>
<g transform="translate(0.000000,700.000000) scale(0.100000,-0.100000)"
fill="#000000" stroke="none">
<path d="M873 5652 c-54 -8 -53 0 -53 -617 l0 -570 -162 -225 c-89 -124 -239
-333 -334 -465 -95 -133 -176 -253 -179 -268 -8 -29 -24 -4 497 -729 86 -119
161 -225 167 -236 8 -14 11 -199 11 -585 0 -541 1 -566 19 -588 l19 -24 356 0
355 0 23 23 23 22 1 688 c0 378 -3 697 -7 708 -7 21 -90 138 -374 532 -69 96
-125 177 -125 182 0 4 111 162 246 350 135 189 249 352 253 364 4 12 7 330 7
708 l-1 688 -23 22 c-23 23 -23 23 -360 23 -185 1 -347 -1 -359 -3z"/>
<path d="M5411 5634 l-26 -22 -1 -694 c0 -427 3 -701 9 -713 6 -11 55 -83 110
-160 56 -77 163 -227 239 -333 76 -105 141 -198 144 -206 3 -8 -98 -157 -241
-356 -135 -188 -250 -352 -254 -364 -4 -11 -7 -330 -7 -708 l1 -688 23 -22 23
-23 351 -1 352 -1 23 23 23 23 0 573 0 573 151 210 c83 116 177 245 208 289
31 43 68 95 82 115 14 20 74 103 132 184 59 82 107 158 107 169 0 11 -55 97
-122 191 -68 94 -143 199 -168 234 -25 34 -106 147 -180 250 -74 103 -152 211
-172 241 l-38 55 0 567 c0 544 -1 569 -19 591 l-19 24 -352 1 c-352 1 -353 1
-379 -22z"/>
<path d="M2159 5220 c-21 -4 -24 -11 -24 -47 -1 -24 3 -43 7 -43 4 0 5 -6 2
-13 -9 -24 -10 -127 -1 -127 4 0 5 -5 1 -12 -10 -15 -11 -169 -2 -189 4 -9 4
-19 1 -23 -11 -11 -11 -56 -1 -56 5 0 6 -5 2 -11 -6 -10 -10 -510 -4 -534 1
-5 1 -12 0 -15 -6 -15 -4 -120 3 -120 4 0 4 -8 0 -17 -5 -10 -7 -56 -6 -103 2
-47 3 -101 2 -120 -4 -103 -1 -199 6 -210 5 -7 4 -11 -1 -8 -5 4 -9 -99 -9
-248 0 -140 4 -254 8 -254 5 0 5 -5 1 -12 -10 -15 -11 -169 -2 -189 4 -9 4
-19 1 -23 -10 -10 -11 -56 -2 -56 5 0 6 -7 2 -16 -9 -24 -9 -664 0 -664 5 0 5
-5 1 -12 -10 -15 -11 -169 -2 -189 4 -9 4 -19 1 -23 -10 -10 -11 -56 -2 -56 5
0 4 -11 -1 -25 -5 -14 -6 -25 -2 -26 52 -5 115 -4 124 2 7 4 18 3 25 -3 9 -7
17 -7 28 2 8 7 15 9 15 4 0 -11 450 -11 468 0 6 4 12 4 12 -1 0 -10 451 -10
468 1 6 4 12 4 12 -1 0 -10 451 -10 468 1 6 4 12 4 12 -1 0 -15 322 -3 400 16
19 4 38 8 43 9 4 1 8 2 10 3 1 0 11 2 22 4 73 13 235 73 235 87 0 4 3 7 8 6
12 -5 82 40 82 52 0 6 4 9 9 5 10 -6 161 139 161 155 0 5 6 15 14 23 21 21
109 187 99 187 -4 0 -3 4 3 8 11 8 42 102 46 142 2 14 6 27 9 30 17 13 28 249
15 325 -3 17 -7 45 -10 64 -13 79 -65 223 -79 214 -5 -3 -8 -2 -4 3 6 10 -24
82 -39 93 -5 3 -14 15 -21 26 -6 11 -16 19 -23 17 -6 -1 -9 2 -6 7 12 19 -137
147 -157 134 -5 -3 -7 -2 -4 3 8 14 -120 78 -188 93 -29 7 -29 8 28 29 64 25
157 71 201 101 45 30 156 143 156 158 0 7 4 13 9 13 10 0 83 146 100 200 15
50 23 90 26 131 1 20 6 42 10 49 18 29 6 254 -19 345 -2 6 -6 27 -11 48 -4 20
-10 37 -14 37 -4 0 -8 12 -9 26 -1 15 -7 33 -13 40 -6 8 -8 14 -4 14 4 0 3 6
-3 13 -6 6 -26 42 -45 79 -20 38 -43 75 -51 84 -9 8 -16 19 -16 24 0 15 -160
170 -176 170 -8 0 -14 4 -14 9 0 14 -164 89 -241 110 -192 52 -219 53 -1205
55 -506 0 -931 -1 -945 -4z m191 -134 c0 -2 -7 -7 -16 -10 -8 -3 -12 -2 -9 4
6 10 25 14 25 6z m120 0 c0 -2 -7 -7 -16 -10 -8 -3 -12 -2 -9 4 6 10 25 14 25
6z m610 -6 c8 -5 11 -10 5 -10 -5 0 -17 5 -25 10 -8 5 -10 10 -5 10 6 0 17 -5
25 -10z m390 0 c0 -5 -2 -10 -4 -10 -3 0 -8 5 -11 10 -3 6 -1 10 4 10 6 0 11
-4 11 -10z m120 0 c0 -5 -2 -10 -4 -10 -3 0 -8 5 -11 10 -3 6 -1 10 4 10 6 0
11 -4 11 -10z m795 -168 c-3 -3 -11 0 -18 7 -9 10 -8 11 6 5 10 -3 15 -9 12
-12z m-1500 -212 c3 -5 1 -10 -4 -10 -6 0 -11 5 -11 10 0 6 2 10 4 10 3 0 8
-4 11 -10z m1925 -54 c0 -3 -4 -8 -10 -11 -5 -3 -10 -1 -10 4 0 6 5 11 10 11
6 0 10 -2 10 -4z m-1185 -196 c0 -1 16 -3 35 -4 82 -6 167 -41 208 -86 30 -31
61 -98 62 -128 0 -15 4 -21 12 -16 7 5 8 3 3 -6 -4 -7 -8 -33 -8 -59 1 -25 -6
-61 -13 -80 -8 -18 -11 -38 -7 -45 3 -6 3 -8 -2 -4 -4 4 -20 -12 -35 -36 -67
-105 -135 -122 -477 -121 -151 1 -223 -2 -223 -9 0 -6 -5 -4 -10 4 -9 13 -11
13 -20 0 -5 -8 -10 -10 -10 -4 0 7 -9 14 -20 17 -16 4 -18 9 -11 35 5 17 7 33
4 35 -4 5 -6 281 -2 303 1 5 1 14 0 19 -6 29 2 180 9 185 6 4 505 4 505 0z
m-1384 -143 c-10 -9 -11 -8 -5 6 3 10 9 15 12 12 3 -3 0 -11 -7 -18z m2087
-92 c-3 -3 -9 2 -12 12 -6 14 -5 15 5 6 7 -7 10 -15 7 -18z m-318 -95 c0 -5
-5 -10 -11 -10 -5 0 -7 5 -4 10 3 6 8 10 11 10 2 0 4 -4 4 -10z m120 0 c0 -5
-5 -10 -11 -10 -5 0 -7 5 -4 10 3 6 8 10 11 10 2 0 4 -4 4 -10z m354 -78 c3
-5 -1 -9 -9 -9 -8 0 -12 4 -9 9 3 4 7 8 9 8 2 0 6 -4 9 -8z m6 -222 c0 -5 -5
-10 -11 -10 -5 0 -7 5 -4 10 3 6 8 10 11 10 2 0 4 -4 4 -10z m-1126 -126 c3
-8 2 -12 -4 -9 -6 3 -10 10 -10 16 0 14 7 11 14 -7z m317 -7 c-10 -9 -11 -8
-5 6 3 10 9 15 12 12 3 -3 0 -11 -7 -18z m173 -125 c3 -5 -1 -9 -9 -9 -8 0
-12 4 -9 9 3 4 7 8 9 8 2 0 6 -4 9 -8z m-1179 -82 c-3 -5 -12 -10 -18 -10 -7
0 -6 4 3 10 19 12 23 12 15 0z m1175 -134 c0 -3 -4 -8 -10 -11 -5 -3 -10 -1
-10 4 0 6 5 11 10 11 6 0 10 -2 10 -4z m-1380 -180 c0 -2 -7 -7 -16 -10 -8 -3
-12 -2 -9 4 6 10 25 14 25 6z m1270 -45 c0 -8 71 -36 83 -33 4 1 6 -1 5 -5 -1
-5 10 -21 26 -38 44 -46 79 -130 81 -195 1 -31 5 -63 10 -70 5 -9 4 -11 -3 -6
-8 4 -12 0 -12 -11 -1 -29 -35 -96 -65 -126 -23 -23 -84 -59 -105 -63 -3 0
-17 -4 -31 -8 -14 -4 -34 -9 -45 -11 -10 -2 -21 -4 -24 -5 -12 -2 -544 1 -547
4 -3 2 -5 283 -3 494 l0 83 315 -2 c173 0 315 -4 315 -8z m744 -67 c3 -8 2
-12 -4 -9 -6 3 -10 10 -10 16 0 14 7 11 14 -7z m-1489 -54 c-3 -5 -12 -10 -18
-10 -7 0 -6 4 3 10 19 12 23 12 15 0z m-65 -154 c0 -3 -4 -8 -10 -11 -5 -3
-10 -1 -10 4 0 6 5 11 10 11 6 0 10 -2 10 -4z m1290 -6 c-8 -5 -19 -10 -25
-10 -5 0 -3 5 5 10 8 5 20 10 25 10 6 0 3 -5 -5 -10z m-1333 -315 c0 -8 -4
-12 -9 -9 -5 3 -6 10 -3 15 9 13 12 11 12 -6z m-103 -3 c3 -5 -1 -9 -9 -9 -8
0 -12 4 -9 9 3 4 7 8 9 8 2 0 6 -4 9 -8z m-223 -275 c-10 -9 -11 -8 -5 6 3 10
9 15 12 12 3 -3 0 -11 -7 -18z m-201 -47 c8 -5 11 -10 5 -10 -5 0 -17 5 -25
10 -8 5 -10 10 -5 10 6 0 17 -5 25 -10z m2127 -65 c0 -8 -4 -12 -9 -9 -5 3 -6
10 -3 15 9 13 12 11 12 -6z m-1437 -255 c0 -5 -5 -10 -11 -10 -5 0 -7 5 -4 10
3 6 8 10 11 10 2 0 4 -4 4 -10z m120 0 c0 -5 -5 -10 -11 -10 -5 0 -7 5 -4 10
3 6 8 10 11 10 2 0 4 -4 4 -10z m594 2 c3 -5 -1 -9 -9 -9 -8 0 -12 4 -9 9 3 4
7 8 9 8 2 0 6 -4 9 -8z m121 -2 c3 -5 1 -10 -4 -10 -6 0 -11 5 -11 10 0 6 2
10 4 10 3 0 8 -4 11 -10z"/>
</g>
</svg>
